<svg width="64" height="64" viewBox="0 0 64 64" fill="none" xmlns="http://www.w3.org/2000/svg">
  <!-- 彎月 -->
  <path d="M32 16 C40 16 48 24 48 32 C48 40 40 48 32 48 C24 48 16 40 16 32 C16 24 24 16 32 16 Z" 
        fill="#FBBF24" stroke="#F59E0B" stroke-width="2"/>
  <path d="M32 20 C38 20 44 26 44 32 C44 38 38 44 32 44 C26 44 20 38 20 32 C20 26 26 20 32 20 Z" 
        fill="#FDE047"/>
  
  <!-- 四角星 -->
  <g transform="translate(45, 20)">
    <path d="M0,-6 L2,-2 L6,-2 L3,1 L5,5 L0,2 L-5,5 L-3,1 L-6,-2 L-2,-2 Z" fill="#FBBF24"/>
    <circle cx="0" cy="0" r="1" fill="#FDE047"/>
  </g>
  
  <!-- 月亮高光 -->
  <ellipse cx="28" cy="28" rx="3" ry="5" fill="#FEF3C7" opacity="0.6"/>
</svg>
